<?xml version="1.0" encoding="utf-8"?>
<!-- Generator: Adobe Illustrator 26.0.1, SVG Export Plug-In . SVG Version: 6.00 Build 0)  -->
<svg version="1.1" id="Layer_1" xmlns="http://www.w3.org/2000/svg" xmlns:xlink="http://www.w3.org/1999/xlink" x="0px" y="0px"
	 viewBox="0 0 841.89 595.28" style="enable-background:new 0 0 841.89 595.28;" xml:space="preserve">
<style type="text/css">
	.st0{fill:none;stroke:#000000;stroke-width:5;stroke-linecap:round;stroke-linejoin:round;stroke-miterlimit:10;}
</style>
<g>
	<g>
		<path d="M693.26,229.33c3.22,0,3.22-5,0-5C690.04,224.33,690.04,229.33,693.26,229.33L693.26,229.33z"/>
	</g>
</g>
<path class="st0" d="M689.48,236.74c0,0-13.57,14.87-4.43,13.83s36-9.65,76.96-9.65s49.04,10.17,41.48,11.48"/>
<path class="st0" d="M494.35,258.91c0,0.78-11.22,7.3-6,10.17c5.22,2.87,37.83-10.27,43.04-15.96c0,0-15.91,12.69-10.43,14.46
	c5.48,1.77,31.57-12.26,31.57-12.26s-12.78,12.46,0,9.07c12.78-3.39,30.78-16.7,30.78-16.7s-17.48,16.43-8.35,15.91
	c9.13-0.52,36.52-16.96,36.52-16.96S593.74,261,602.93,261c9.2,0,28.57-14.35,28.57-14.35s-8.22,11.8,0,8.67
	s28.96-17.02,28.96-17.02s-19.17,13.38-12.13,15.59c7.04,2.21,24.07-6.4,24.07-6.4S618,360.65,594.52,358.57s26.45-83.83,37.3-69.65
	"/>
<path class="st0" d="M230.87,315c0,0,147.78-26.87,352.96-38.09c205.17-11.22,170.35,2.61,160.43,8.35"/>
<path class="st0" d="M494.35,179.87c0,0-86.09,184.43-105.13,176.87c-19.04-7.57,73.3-109.04,139.04-150.26s75.65-28.17,64.7-17.74"
	/>
<path class="st0" d="M412.86,250.92c0,0-3.03,2.45-3.72,4.4"/>
<path class="st0" d="M306.03,262.32c0,0-3.52,1.47-5.38,4.89"/>
<path class="st0" d="M265.04,278.61c0,0-2.54-1.96-15.36,5.87c-12.82,7.83-13.11,11.25-9.78,11.25c3.33,0,19.96-8.12,19.96-8.12
	s-3.03,3.62,5.18,2.74c8.22-0.88,27.2-12.62,27.2-12.62s-8.32,11.15-3.33,10.57c4.99-0.59,30.52-13.79,30.52-13.79
	s-9.78,10.17,0,8.8c9.78-1.37,36.39-16.83,59.87-38.15s16.43-30.13-19.76,8.02s-1.37,26.22,14.67,16.43c0,0-9.03,12.72,6.34,7.83
	c15.37-4.89,24.57-9.59,24.57-9.59s-7.04,12.33,0,10.76s21.33-5.87,21.33-5.87"/>
<path class="st0" d="M244.96,246.65c0,0-24.52,31.3-68.35,113.22c0,0,33.91-77.09,0-97.76s-114.26,5.93-137.74,20.54
	c0,0,65.22-47.48,195.65-78.26s170.09,0,132.52,9.39"/>
</svg>
